<?xml version="1.0" encoding="UTF-8" ?>
<!DOCTYPE svg PUBLIC "-//W3C//DTD SVG 1.1//EN" "http://www.w3.org/Graphics/SVG/1.1/DTD/svg11.dtd">
<svg width="388pt" height="400pt" viewBox="0 0 388 400" version="1.1" xmlns="http://www.w3.org/2000/svg">
<g id="#000000ff">
</g>
<g id="#fefefeff">
<path fill="#fefefe" opacity="1.00" d=" M 374.30 9.24 C 376.02 7.62 378.39 7.37 380.58 6.77 C 380.17 11.55 378.24 16.03 376.98 20.63 C 373.77 27.00 372.32 34.03 370.08 40.75 C 368.16 45.22 366.57 49.81 364.61 54.25 C 362.41 59.62 361.04 65.61 357.03 69.99 C 351.61 75.38 345.11 79.47 339.30 84.39 C 330.85 90.60 322.96 97.56 314.18 103.31 C 300.60 112.47 287.60 122.54 273.38 130.72 C 247.35 144.17 221.84 158.78 194.85 170.32 C 191.81 171.48 188.53 173.37 185.22 172.12 C 180.46 169.99 176.47 166.44 171.53 164.67 C 164.81 162.20 157.99 159.46 150.75 159.24 C 141.61 157.22 132.12 159.70 124.22 164.42 C 116.18 169.02 109.38 175.40 102.54 181.55 C 91.98 194.11 83.07 208.10 76.18 223.01 C 74.52 226.53 72.67 230.09 69.71 232.70 C 62.71 239.04 54.91 244.50 48.55 251.52 C 44.62 255.49 40.05 259.18 37.55 264.26 C 37.19 269.77 37.33 275.42 39.77 280.49 C 41.30 283.06 41.37 286.16 42.90 288.73 C 42.59 286.33 42.47 283.92 42.22 281.53 C 44.94 287.35 47.60 293.27 51.56 298.39 C 56.33 304.12 62.08 309.24 69.04 312.13 C 72.71 313.56 76.35 315.09 80.10 316.29 C 84.99 316.54 89.97 316.73 94.85 316.20 C 103.41 313.57 112.24 311.88 120.67 308.83 C 123.77 307.70 126.85 306.49 130.09 305.77 C 129.29 306.67 128.49 307.58 127.69 308.48 C 136.39 305.50 144.07 300.28 152.07 295.86 C 158.11 291.75 164.33 287.70 169.44 282.42 C 169.98 279.66 169.55 276.79 167.84 274.52 C 164.71 274.26 161.35 274.11 158.56 275.77 C 151.63 279.37 144.34 282.20 137.42 285.81 C 131.29 288.46 124.87 290.36 118.72 292.94 C 111.92 294.46 105.12 296.00 98.42 297.95 C 95.30 298.94 92.28 300.53 88.93 300.51 C 84.35 300.32 80.57 303.87 75.97 303.52 C 73.24 304.04 71.41 301.13 70.62 298.93 C 69.61 291.56 72.98 284.64 75.37 277.87 C 77.29 269.28 81.29 261.34 83.38 252.80 C 85.63 245.95 88.76 239.44 91.43 232.75 C 95.07 224.82 97.86 216.42 103.07 209.32 C 107.62 202.01 112.67 194.85 119.37 189.35 C 124.73 183.99 131.04 179.44 138.12 176.67 C 145.63 176.14 153.72 175.40 160.73 178.79 C 168.43 181.69 177.08 183.90 182.70 190.34 C 186.12 194.39 187.15 200.19 191.58 203.44 C 193.86 203.95 195.84 202.42 197.83 201.58 C 202.87 198.82 208.72 197.04 212.48 192.45 C 214.73 190.03 218.38 191.09 221.10 189.72 C 229.70 185.75 237.14 179.73 245.49 175.32 C 249.73 173.00 253.39 169.79 257.58 167.41 C 267.59 161.34 278.83 157.70 290.06 154.69 C 297.03 154.04 304.04 154.19 311.01 154.73 C 323.38 157.79 336.18 164.32 341.88 176.33 C 344.76 181.39 343.17 187.33 343.53 192.82 C 344.56 190.34 345.44 187.70 345.54 185.00 C 344.20 177.72 341.03 170.58 335.48 165.53 C 328.50 159.67 320.10 155.40 311.16 153.61 C 306.37 153.85 301.69 151.46 296.95 153.03 C 294.05 153.92 290.95 153.09 288.04 153.85 C 277.73 157.17 267.07 160.02 257.83 165.87 C 251.11 170.15 244.45 174.53 237.53 178.49 C 229.89 182.74 223.10 189.86 213.74 189.68 C 210.73 192.04 208.28 195.12 204.80 196.88 C 200.62 198.89 196.52 202.21 191.61 201.55 C 188.66 199.49 187.72 195.87 185.99 192.92 C 183.58 188.15 179.06 184.76 174.23 182.67 C 166.79 179.48 159.32 176.11 151.31 174.61 C 147.79 174.38 144.24 174.40 140.72 174.62 C 134.35 176.07 128.69 179.59 123.71 183.71 C 117.80 188.77 111.83 193.93 107.45 200.44 C 102.39 207.93 96.96 215.36 93.98 223.99 C 90.04 232.11 87.36 240.80 83.13 248.77 C 83.35 243.97 85.93 239.77 87.78 235.46 C 92.07 224.64 96.21 213.55 103.25 204.14 C 107.59 198.60 110.92 192.08 116.77 187.89 C 122.60 182.61 128.56 177.04 136.17 174.45 C 140.83 172.10 146.20 172.15 151.25 172.96 C 157.94 174.49 164.47 176.74 170.70 179.62 C 175.71 181.79 181.17 183.82 184.60 188.31 C 187.76 191.86 188.93 196.68 192.05 200.25 C 193.80 200.81 195.73 200.52 197.25 199.48 C 200.40 197.59 203.63 195.85 206.73 193.89 C 209.51 192.13 211.33 189.06 214.47 187.85 C 216.56 187.36 218.74 187.66 220.86 187.32 C 224.03 185.89 226.68 183.58 229.63 181.78 C 236.07 177.44 242.95 173.82 249.48 169.63 C 254.64 166.43 259.71 163.05 265.17 160.39 C 278.55 154.88 292.91 150.02 307.56 151.80 C 312.51 153.24 317.83 153.38 322.47 155.75 C 330.13 159.36 337.93 163.99 342.19 171.60 C 345.00 177.00 347.84 183.12 346.07 189.31 C 344.50 193.43 342.46 197.51 342.45 202.02 C 341.08 209.54 337.20 216.32 335.30 223.70 C 332.96 230.76 330.23 237.70 327.24 244.51 C 323.91 253.69 321.00 263.29 315.08 271.21 C 306.50 280.37 295.57 287.21 283.81 291.51 C 270.89 295.70 257.26 298.64 243.63 297.16 C 233.77 295.27 224.58 290.95 216.03 285.80 C 208.30 280.89 201.98 274.23 195.83 267.53 C 190.39 274.11 189.58 283.01 186.27 290.67 C 182.17 299.24 179.29 308.32 175.86 317.16 C 175.48 317.53 174.72 318.29 174.34 318.66 C 177.38 309.50 180.30 300.26 184.35 291.49 C 186.93 285.72 188.26 279.50 190.59 273.64 C 191.93 270.84 193.66 268.24 195.00 265.44 C 200.50 269.74 204.76 275.41 210.10 279.90 C 219.20 286.93 229.76 291.97 240.74 295.28 C 247.09 295.82 253.50 295.39 259.88 295.55 C 265.54 295.85 270.79 293.35 276.27 292.34 C 290.90 288.25 305.10 280.79 314.88 268.93 C 320.04 261.33 323.32 252.63 325.96 243.89 C 327.77 239.39 330.03 235.06 331.48 230.40 C 334.51 220.78 338.33 211.43 341.46 201.85 C 341.50 201.08 341.56 199.55 341.59 198.78 C 340.13 200.44 339.59 202.61 339.05 204.69 C 337.05 212.33 333.25 219.36 331.37 227.03 C 329.17 233.93 325.65 240.32 323.77 247.33 C 321.02 253.85 318.75 260.68 314.80 266.62 C 306.95 277.55 294.85 284.44 282.38 288.90 C 276.67 291.18 270.59 292.25 264.82 294.33 C 257.25 294.76 249.62 294.52 242.04 294.38 C 233.11 291.54 224.23 288.02 216.41 282.75 C 209.20 278.42 203.80 271.84 197.98 265.91 C 197.04 264.91 195.71 264.50 194.56 263.84 C 192.67 267.16 190.57 270.40 189.31 274.04 C 185.97 281.31 184.80 289.45 180.63 296.38 C 177.09 307.97 173.07 319.74 165.57 329.44 C 160.32 335.58 154.29 340.98 148.51 346.60 C 137.84 356.76 125.21 364.49 112.45 371.71 C 105.96 375.32 98.84 377.53 91.89 380.05 C 79.35 383.70 66.03 387.60 52.97 384.37 C 43.92 382.94 36.08 377.67 29.49 371.56 C 21.42 363.49 17.37 352.48 14.72 341.61 C 14.16 331.83 14.20 321.92 16.06 312.28 C 17.56 307.90 18.74 303.45 19.73 298.94 C 22.34 293.13 23.28 286.81 25.24 280.80 C 30.86 265.09 36.76 249.48 42.39 233.79 C 42.46 226.54 47.06 220.40 50.05 214.06 C 54.79 207.09 57.98 199.06 63.82 192.86 C 70.15 186.18 76.90 179.91 83.40 173.40 C 90.76 167.75 97.69 161.47 105.64 156.60 C 117.34 150.93 128.42 144.03 139.66 137.50 C 151.45 130.84 164.57 127.18 176.80 121.50 C 191.56 114.34 206.99 108.70 221.77 101.58 C 227.34 98.56 233.34 96.43 238.94 93.46 C 247.15 89.61 255.86 86.57 263.07 80.94 C 275.02 74.57 286.26 66.88 298.65 61.40 C 306.94 56.43 315.14 51.32 323.36 46.25 C 333.37 40.48 342.41 33.26 352.06 26.95 C 359.48 21.06 366.95 15.22 374.30 9.24 M 43.77 289.34 C 44.43 293.10 46.72 296.21 48.90 299.23 C 55.98 308.94 66.76 315.76 78.56 318.04 C 86.43 320.61 94.66 318.66 102.46 316.92 C 109.13 315.49 115.83 313.73 121.84 310.46 C 116.76 310.31 112.37 313.37 107.51 314.43 C 101.37 315.65 95.36 318.09 89.00 317.53 C 72.74 318.68 56.75 309.44 48.19 295.81 C 46.86 293.56 45.46 291.34 43.77 289.34 Z" />
<path fill="#fefefe" opacity="1.00" d=" M 38.41 34.36 C 41.04 34.20 44.07 33.82 46.13 35.87 C 55.95 43.81 64.23 53.67 70.52 64.62 C 76.73 75.31 84.72 85.11 89.05 96.78 C 89.53 101.26 91.76 105.41 91.51 109.97 C 91.40 119.02 91.53 128.07 91.44 137.12 C 90.62 138.37 89.56 139.44 88.66 140.63 C 88.21 143.31 88.27 146.18 86.64 148.52 C 84.72 151.41 84.31 155.71 80.54 156.92 C 78.65 158.54 76.94 156.09 75.61 154.91 C 75.49 147.37 80.20 140.61 79.71 133.05 C 79.69 129.34 79.71 125.64 79.70 121.93 C 79.92 117.63 77.25 113.99 75.99 110.05 C 71.19 101.25 65.49 92.98 60.58 84.24 C 56.07 76.40 50.44 69.29 44.50 62.49 C 41.16 59.10 36.97 56.55 34.11 52.69 C 32.45 46.41 33.90 39.14 38.41 34.36 Z" />
<path fill="#fefefe" opacity="1.00" d=" M 80.56 253.35 C 80.81 251.93 82.10 251.15 82.96 250.13 C 82.62 251.70 82.50 253.34 81.86 254.84 C 77.40 265.51 74.48 276.74 70.51 287.59 C 68.94 291.10 69.47 295.04 69.46 298.77 C 69.27 300.96 71.10 302.47 72.00 304.27 C 70.91 304.00 69.85 303.66 68.81 303.24 C 66.08 296.11 68.23 288.48 71.13 281.78 C 73.71 272.11 78.27 263.10 80.56 253.35 Z" />
<path fill="#fefefe" opacity="1.00" d=" M 138.05 286.94 C 145.80 283.36 153.57 279.83 161.17 275.93 C 164.45 273.99 169.67 276.88 168.33 280.86 C 166.76 283.66 164.29 285.86 161.70 287.70 C 156.38 291.44 151.09 295.27 145.30 298.29 C 141.27 300.34 137.75 303.39 133.38 304.78 C 136.53 301.71 140.50 299.66 144.27 297.47 C 150.02 294.37 155.29 290.47 160.66 286.77 C 163.54 284.47 167.79 281.97 166.44 277.61 C 164.13 277.42 161.56 276.90 159.48 278.24 C 148.03 284.28 136.28 289.98 123.76 293.43 C 112.32 297.73 100.23 299.76 88.57 303.31 C 86.13 303.72 83.64 303.58 81.19 303.43 C 100.34 298.83 119.80 294.64 138.05 286.94 Z" />
</g>
</svg>
